<?xml version="1.0" encoding="UTF-8" standalone="no"?>
<!DOCTYPE svg PUBLIC "-//W3C//DTD SVG 1.1//EN" "http://www.w3.org/Graphics/SVG/1.1/DTD/svg11.dtd">
<svg width="100%" height="100%" viewBox="0 0 364 108" version="1.1" xmlns="http://www.w3.org/2000/svg" xmlns:xlink="http://www.w3.org/1999/xlink" xml:space="preserve" xmlns:serif="http://www.serif.com/" style="fill-rule:evenodd;clip-rule:evenodd;stroke-linejoin:round;stroke-miterlimit:2;">
    <g transform="matrix(1,0,0,1,-314.984251,-46.762934)">
        <g transform="matrix(1.393429,0,0,1.393429,-230.294402,7.153738)">
            <g transform="matrix(43.335523,0,0,43.335523,473,95.041608)">
                <path d="M0.094,-0L0.094,-0.7L0.382,-0.7C0.444,-0.7 0.497,-0.69 0.541,-0.67C0.586,-0.65 0.62,-0.622 0.644,-0.584C0.668,-0.547 0.68,-0.502 0.68,-0.451C0.68,-0.4 0.668,-0.356 0.644,-0.318C0.62,-0.281 0.586,-0.252 0.541,-0.232C0.497,-0.212 0.444,-0.202 0.382,-0.202L0.166,-0.202L0.224,-0.263L0.224,-0L0.094,-0ZM0.224,-0.249L0.166,-0.312L0.376,-0.312C0.433,-0.312 0.476,-0.324 0.505,-0.349C0.535,-0.373 0.549,-0.407 0.549,-0.451C0.549,-0.495 0.535,-0.53 0.505,-0.554C0.476,-0.578 0.433,-0.59 0.376,-0.59L0.166,-0.59L0.224,-0.654L0.224,-0.249Z" style="fill:rgb(253,252,253);fill-rule:nonzero;"/>
            </g>
            <g transform="matrix(43.335523,0,0,43.335523,503.831355,95.041608)">
                <path d="M0.082,-0L0.082,-0.534L0.201,-0.534L0.201,-0.387L0.187,-0.43C0.203,-0.466 0.228,-0.494 0.263,-0.512C0.297,-0.531 0.34,-0.54 0.391,-0.54L0.391,-0.421C0.385,-0.422 0.38,-0.423 0.376,-0.423C0.371,-0.423 0.367,-0.424 0.362,-0.424C0.315,-0.424 0.277,-0.41 0.249,-0.382C0.221,-0.355 0.207,-0.314 0.207,-0.259L0.207,-0L0.082,-0Z" style="fill:rgb(253,252,253);fill-rule:nonzero;"/>
            </g>
            <g transform="matrix(43.335523,0,0,43.335523,521.611992,95.041608)">
                <path d="M0.322,0.007C0.268,0.007 0.219,-0.005 0.176,-0.029C0.133,-0.052 0.099,-0.085 0.075,-0.126C0.05,-0.167 0.038,-0.214 0.038,-0.267C0.038,-0.321 0.05,-0.368 0.075,-0.409C0.1,-0.45 0.133,-0.482 0.176,-0.505C0.219,-0.529 0.267,-0.54 0.322,-0.54C0.377,-0.54 0.427,-0.529 0.47,-0.505C0.512,-0.482 0.546,-0.45 0.571,-0.409C0.595,-0.368 0.607,-0.321 0.607,-0.267C0.607,-0.214 0.595,-0.167 0.571,-0.126C0.546,-0.084 0.513,-0.052 0.469,-0.029C0.426,-0.005 0.377,0.007 0.322,0.007ZM0.322,-0.1C0.353,-0.1 0.38,-0.107 0.404,-0.12C0.428,-0.134 0.447,-0.153 0.46,-0.178C0.474,-0.204 0.481,-0.233 0.481,-0.267C0.481,-0.302 0.474,-0.331 0.46,-0.356C0.447,-0.381 0.428,-0.4 0.404,-0.414C0.38,-0.427 0.353,-0.434 0.323,-0.434C0.293,-0.434 0.266,-0.427 0.242,-0.414C0.218,-0.4 0.199,-0.381 0.185,-0.356C0.171,-0.331 0.164,-0.302 0.164,-0.267C0.164,-0.233 0.171,-0.204 0.185,-0.178C0.199,-0.153 0.218,-0.134 0.242,-0.12C0.265,-0.107 0.292,-0.1 0.322,-0.1Z" style="fill:rgb(253,252,253);fill-rule:nonzero;"/>
            </g>
            <g transform="matrix(43.335523,0,0,43.335523,548.909633,95.041608)">
                <path d="M0.224,-0L-0.005,-0.534L0.125,-0.534L0.322,-0.063L0.258,-0.063L0.462,-0.534L0.582,-0.534L0.353,-0L0.224,-0Z" style="fill:rgb(253,252,253);fill-rule:nonzero;"/>
            </g>
            <g transform="matrix(43.335523,0,0,43.335523,573.73341,95.041608)">
                <path d="M0.311,0.01C0.256,0.01 0.204,0.002 0.154,-0.014C0.104,-0.029 0.064,-0.049 0.035,-0.074L0.08,-0.175C0.108,-0.153 0.143,-0.134 0.184,-0.12C0.226,-0.105 0.268,-0.098 0.311,-0.098C0.348,-0.098 0.377,-0.102 0.4,-0.11C0.423,-0.118 0.439,-0.129 0.45,-0.142C0.461,-0.156 0.466,-0.172 0.466,-0.189C0.466,-0.21 0.458,-0.227 0.443,-0.24C0.428,-0.253 0.408,-0.263 0.384,-0.271C0.359,-0.279 0.332,-0.287 0.303,-0.293C0.273,-0.3 0.243,-0.307 0.213,-0.316C0.184,-0.325 0.157,-0.337 0.132,-0.352C0.108,-0.366 0.088,-0.385 0.073,-0.409C0.058,-0.433 0.05,-0.464 0.05,-0.501C0.05,-0.539 0.06,-0.574 0.081,-0.605C0.101,-0.637 0.132,-0.662 0.173,-0.681C0.215,-0.7 0.268,-0.71 0.332,-0.71C0.374,-0.71 0.416,-0.705 0.457,-0.694C0.498,-0.683 0.534,-0.668 0.565,-0.648L0.524,-0.547C0.493,-0.566 0.46,-0.58 0.427,-0.589C0.394,-0.598 0.362,-0.602 0.331,-0.602C0.295,-0.602 0.266,-0.598 0.243,-0.589C0.221,-0.581 0.204,-0.569 0.194,-0.555C0.184,-0.541 0.179,-0.525 0.179,-0.507C0.179,-0.486 0.186,-0.468 0.201,-0.456C0.217,-0.443 0.236,-0.433 0.261,-0.425C0.285,-0.418 0.312,-0.41 0.342,-0.404C0.372,-0.397 0.401,-0.389 0.431,-0.38C0.461,-0.372 0.488,-0.36 0.512,-0.346C0.537,-0.332 0.556,-0.313 0.572,-0.289C0.587,-0.265 0.594,-0.235 0.594,-0.198C0.594,-0.161 0.584,-0.126 0.564,-0.095C0.543,-0.063 0.512,-0.038 0.47,-0.019C0.428,0 0.375,0.01 0.311,0.01Z" style="fill:rgb(253,252,253);fill-rule:nonzero;"/>
            </g>
            <g transform="matrix(43.335523,0,0,43.335523,600.997429,95.041608)">
                <path d="M0.333,0.007C0.274,0.007 0.222,-0.005 0.177,-0.029C0.133,-0.052 0.099,-0.085 0.074,-0.126C0.05,-0.167 0.038,-0.214 0.038,-0.267C0.038,-0.32 0.049,-0.367 0.073,-0.408C0.097,-0.45 0.13,-0.482 0.172,-0.505C0.213,-0.529 0.261,-0.54 0.314,-0.54C0.366,-0.54 0.412,-0.529 0.453,-0.506C0.494,-0.483 0.526,-0.451 0.549,-0.41C0.572,-0.369 0.584,-0.32 0.584,-0.264C0.584,-0.258 0.584,-0.253 0.584,-0.246C0.583,-0.239 0.583,-0.233 0.582,-0.227L0.137,-0.227L0.137,-0.31L0.516,-0.31L0.467,-0.284C0.467,-0.314 0.461,-0.341 0.448,-0.365C0.435,-0.388 0.417,-0.406 0.394,-0.42C0.371,-0.433 0.344,-0.44 0.314,-0.44C0.284,-0.44 0.257,-0.433 0.234,-0.42C0.21,-0.406 0.192,-0.388 0.179,-0.364C0.167,-0.34 0.16,-0.313 0.16,-0.281L0.16,-0.261C0.16,-0.229 0.167,-0.201 0.182,-0.176C0.197,-0.152 0.217,-0.133 0.244,-0.119C0.27,-0.105 0.301,-0.099 0.336,-0.099C0.366,-0.099 0.393,-0.103 0.417,-0.113C0.441,-0.123 0.462,-0.137 0.481,-0.157L0.548,-0.08C0.524,-0.052 0.494,-0.03 0.457,-0.016C0.421,-0.001 0.379,0.007 0.333,0.007Z" style="fill:rgb(253,252,253);fill-rule:nonzero;"/>
            </g>
            <g transform="matrix(43.335523,0,0,43.335523,627.937179,95.041608)">
                <path d="M0.327,0.007C0.271,0.007 0.221,-0.005 0.177,-0.029C0.134,-0.052 0.099,-0.084 0.075,-0.126C0.05,-0.167 0.038,-0.214 0.038,-0.267C0.038,-0.321 0.05,-0.368 0.075,-0.409C0.099,-0.45 0.134,-0.482 0.177,-0.505C0.221,-0.529 0.271,-0.54 0.327,-0.54C0.379,-0.54 0.425,-0.53 0.465,-0.509C0.504,-0.488 0.534,-0.457 0.555,-0.416L0.459,-0.359C0.443,-0.385 0.423,-0.404 0.4,-0.416C0.377,-0.428 0.352,-0.434 0.326,-0.434C0.295,-0.434 0.267,-0.427 0.243,-0.414C0.218,-0.4 0.199,-0.381 0.185,-0.356C0.171,-0.331 0.164,-0.301 0.164,-0.267C0.164,-0.233 0.171,-0.203 0.185,-0.178C0.199,-0.153 0.218,-0.134 0.243,-0.12C0.267,-0.107 0.295,-0.1 0.326,-0.1C0.352,-0.1 0.377,-0.106 0.4,-0.118C0.423,-0.13 0.443,-0.149 0.459,-0.174L0.555,-0.118C0.534,-0.078 0.504,-0.047 0.465,-0.026C0.425,-0.004 0.379,0.007 0.327,0.007Z" style="fill:rgb(253,252,253);fill-rule:nonzero;"/>
            </g>
            <g transform="matrix(43.335523,0,0,43.335523,653.116982,95.041608)">
            </g>
        </g>
        <g transform="matrix(0.136615,0,0,0.136615,277.554018,20.054943)">
            <g id="Background" transform="matrix(1.224609,0,0,1.224609,0,0)">
                <path d="M668.422,203.762C659.017,199.492 594.531,170.217 540.701,222.703C491.727,270.454 519.755,337.879 555.825,361.027C597.488,387.766 645.765,384.261 648.359,386.676C649.457,387.698 674.358,423.546 675.754,462.484C676.289,477.412 678.468,522.614 637.942,580.815C625.169,599.159 592.976,637.25 613.482,608.488C645.362,563.77 682.674,471.76 604.727,424.129C579.394,408.648 557.115,407.553 556.774,407.847C554.549,409.773 583.474,444.736 562.491,505.497C551.64,536.919 515.723,590.646 423.382,633.241C381.926,652.363 340.384,663.905 326.469,666.351C326.104,666.415 319.978,667.491 322.414,668.586C325.362,669.911 349.147,675.967 351.484,676.561C397.648,688.314 416.629,657.284 417.559,661.466C419.2,668.846 418.382,680.003 429.681,700.406C429.82,700.657 430.695,702.236 431.687,703.389L430.9,704.329C426.029,700.897 425.029,705.659 396.504,700.477C374.804,696.535 367.659,688.796 362.334,692.157C334.138,709.952 288.696,730.337 226.501,708.5C233.172,702.854 255.804,689.258 280.109,655.221C318.541,601.401 339.345,483.981 436.908,403.994C508.181,345.56 451.248,301.136 479.974,231.731C488.182,211.899 506.049,195.559 508.905,192.946C553.135,152.495 633.244,148.314 668.126,199.724C668.266,199.93 669.696,202.038 669.522,202.508C669.329,203.029 668.615,203.241 668.422,203.762Z" style="fill:rgb(6,17,34);"/>
                <path d="M668.422,203.762C670.06,204.363 670.001,204.039 671.732,204.004C672.04,203.997 672.213,204.49 672.521,204.484C673.759,207.171 673.705,207.144 675.369,209.633C675.785,211.207 675.717,211.127 676.421,212.539C677.032,218.995 680.343,222.455 682.096,231.571C687.637,260.383 677.95,283.549 677.631,284.577C674.171,285.012 667.72,284.154 662.604,289.599C655.998,296.63 661.93,304.899 662.006,305.049C654.405,311.043 636.958,322.61 631.997,338.655C630.805,342.508 632.941,342.002 639.215,343.845L639.285,344.559C639.095,351.921 638.644,358.861 643.967,372.296C651.318,390.852 703.131,443.56 667.697,533.58C631.002,626.807 535.481,676.757 533.447,678.444C526.118,680.209 526.837,681.88 510.609,688.782C490.986,697.129 489.555,694.826 485.187,700.124C479.58,706.162 479.875,706.341 473.594,711.6C460.441,718.95 448.132,721.612 431.687,703.389C430.695,702.236 429.82,700.657 429.681,700.406C418.382,680.003 419.2,668.846 417.559,661.466C416.629,657.284 397.648,688.314 351.484,676.561C349.147,675.967 325.362,669.911 322.414,668.586C319.978,667.491 326.104,666.415 326.469,666.351C340.384,663.905 381.926,652.363 423.382,633.241C515.723,590.646 551.64,536.919 562.491,505.497C583.474,444.736 554.549,409.773 556.774,407.847C557.115,407.553 579.394,408.648 604.727,424.129C682.674,471.76 645.362,563.77 613.482,608.488C592.976,637.25 625.169,599.159 637.942,580.815C678.468,522.614 676.289,477.412 675.754,462.484C674.358,423.546 649.457,387.698 648.359,386.676C645.765,384.261 597.488,387.766 555.825,361.027C519.755,337.879 491.727,270.454 540.701,222.703C594.531,170.217 659.017,199.492 668.422,203.762Z" style="fill:rgb(253,252,253);"/>
                <path d="M431.687,703.389C448.132,721.612 460.441,718.95 473.594,711.6C473.931,717.21 467.523,727.268 474.204,761.563C474.349,762.307 475.327,767.328 477.673,770.376C477.22,771.516 476.754,771.514 477.441,772.532C478.606,774.256 478.427,774.333 478.536,774.474C482.358,779.401 511.757,774.434 535.436,778.875C547.334,781.106 565.169,799.426 566.591,803.256C562.393,804.571 445.866,803.818 444.562,803.615C443.909,790.089 443.837,786.028 443.81,784.497C443.744,780.778 443.758,780.792 443.73,780.471C443.571,778.636 442.715,778.929 442.506,778.611C443.918,775.452 445.229,772.52 438.055,735.587C435.336,721.588 431.592,707.69 430.945,705.286L430.9,704.329L431.687,703.389Z" style="fill:rgb(252,81,2);"/>
                <path d="M533.447,678.444C533.254,681.33 529.53,692.456 519.97,704.848C517.212,708.422 518.987,746.152 522.341,758.543C525.81,771.36 552.573,765.824 564.503,765.692C592.595,765.38 597.122,779.097 602.428,781.208C602.591,783.686 602.794,783.576 604.024,785.752C605.897,789.067 605.889,788.98 607.245,792.587C608.951,797.127 609.392,799.167 604.494,799.175C567.144,799.232 566.868,799.178 565.949,798.095C548.715,777.792 546.632,773.285 496.451,773.188C497.287,770.903 497.263,770.963 497.425,767.495C497.848,758.422 486.423,703.564 485.187,700.124C489.555,694.826 490.986,697.129 510.609,688.782C526.837,681.88 526.118,680.209 533.447,678.444Z" style="fill:rgb(252,78,3);"/>
                <path d="M675.369,209.633C686.928,210.33 755.046,248.745 758.413,321.504C758.683,327.334 759.796,330.789 756.504,331.823C756.154,331.28 756.747,330.72 753.369,328.698C746.479,324.573 734.927,316.293 719.516,309.456C717.41,308.522 717.247,309.001 715.424,307.688C715.133,307.478 714.853,308.228 711.377,305.764C710.124,304.875 710.096,305.573 708.267,305.967C705.911,305.362 706.074,305.114 703.454,303.636C704.895,302.5 704.943,302.552 705.01,302.409C710.809,290.128 706.656,268.467 706.101,265.571C701.734,242.792 685.971,221.139 679.673,215.344C678.183,213.756 678.292,213.754 676.421,212.539C675.717,211.127 675.785,211.207 675.369,209.633Z" style="fill:rgb(252,79,2);"/>
                <path d="M442.506,778.611C442.715,778.929 443.571,778.636 443.73,780.471C443.758,780.792 443.744,780.778 443.81,784.497C443.837,786.028 443.909,790.089 444.562,803.615C439.037,804.329 251.115,803.476 243.5,804.038C242.999,804.075 220.699,805.719 237.439,802.38C293.097,791.278 347.197,784.95 442.506,778.611Z" style="fill:rgb(251,251,251);"/>
                <path d="M477.673,770.376C481.121,774.569 482.353,773.441 496.451,773.188C546.632,773.285 548.715,777.792 565.949,798.095C566.868,799.178 567.144,799.232 604.494,799.175C609.392,799.167 608.951,797.127 607.245,792.587C605.889,788.98 605.897,789.067 604.024,785.752C602.794,783.576 602.591,783.686 602.428,781.208C726.475,788.467 834.549,807.304 792.495,804.367C770.489,802.83 577.527,805.01 566.591,803.256C565.169,799.426 547.334,781.106 535.436,778.875C511.757,774.434 482.358,779.401 478.536,774.474C478.427,774.333 478.606,774.256 477.441,772.532C476.754,771.514 477.22,771.516 477.673,770.376Z" style="fill:rgb(250,250,250);"/>
                <path d="M676.421,212.539C678.292,213.754 678.183,213.756 679.673,215.344C679.935,223.124 706.285,254.453 697.03,296.389C696.234,299.995 697.228,300.141 703.454,303.636C706.074,305.114 705.911,305.362 708.267,305.967C711.2,308.078 725.554,314.726 728.428,316.612C728.68,316.751 730.381,317.69 731.495,318.508C732.102,319.122 733.877,319.221 734.511,321.484C733.224,320.476 730.838,319.62 730.501,319.499C728.921,318.932 728.878,318.03 726.491,317.517C724.941,317.184 712.392,309.321 701.553,307.409C695.02,305.498 695.087,305.337 694.5,305.346C691.365,305.388 681.304,326.948 647.304,343.427C643.207,342.891 643.212,342.831 639.215,343.845C632.941,342.002 630.805,342.508 631.997,338.655C636.958,322.61 654.405,311.043 662.006,305.049C665.434,302.807 670.897,298.304 671.646,297.687C677.435,292.915 675.972,291.942 677.631,284.577C677.95,283.549 687.637,260.383 682.096,231.571C680.343,222.455 677.032,218.995 676.421,212.539Z" style="fill:rgb(7,18,33);"/>
                <path d="M668.422,203.762C668.615,203.241 669.329,203.029 669.522,202.508C669.696,202.038 668.266,199.93 668.126,199.724C633.244,148.314 553.135,152.495 508.905,192.946C506.049,195.559 488.182,211.899 479.974,231.731C451.248,301.136 508.181,345.56 436.908,403.994C339.345,483.981 318.541,601.401 280.109,655.221C255.804,689.258 233.172,702.854 226.501,708.5C226.191,708.976 225.881,709.452 225.571,709.928C219.713,708.106 228.699,705.153 240.529,694.533C284.149,655.375 285.021,643.133 326.432,551.472C371.976,450.662 415.381,418.66 439.885,397.981C505.228,342.839 446.313,293.156 480.734,225.627C513.48,161.385 602.272,139.673 652.753,180.103C669.809,193.762 672.137,203.672 672.521,204.484C672.213,204.49 672.04,203.997 671.732,204.004C670.001,204.039 670.06,204.363 668.422,203.762Z" style="fill:rgb(193,196,202);"/>
                <path d="M701.553,307.409C712.392,309.321 724.941,317.184 726.491,317.517C728.878,318.03 728.921,318.932 730.501,319.499C730.838,319.62 733.224,320.476 734.511,321.484C741.986,326.687 742.706,325.701 745.587,329.199C721.718,335.467 684.141,348.405 658.454,344.269C675.277,334.55 675.644,335.123 690.12,322.089C691.226,321.093 699.973,313.217 701.553,307.409Z" style="fill:rgb(251,78,3);"/>
                <path d="M485.187,700.124C486.423,703.564 497.848,758.422 497.425,767.495C497.263,770.963 497.287,770.903 496.451,773.188C482.353,773.441 481.121,774.569 477.673,770.376C475.327,767.328 474.349,762.307 474.204,761.563C467.523,727.268 473.931,717.21 473.594,711.6C479.875,706.341 479.58,706.162 485.187,700.124Z" style="fill:rgb(3,23,51);"/>
                <path d="M636.881,253.647C635.919,255.649 627.79,272.567 610.762,263.048C603.559,259.021 602.403,252.807 599.513,252.424C589.574,251.105 567.643,250.266 583.36,248.013C591.043,246.911 599.731,242.222 601.34,239.408C603.399,235.807 613.149,217.49 628.851,229.009C641.723,238.451 637.51,251.672 636.881,253.647Z" style="fill:rgb(8,18,34);"/>
                <path d="M679.673,215.344C685.971,221.139 701.734,242.792 706.101,265.571C706.656,268.467 710.809,290.128 705.01,302.409C704.943,302.552 704.895,302.5 703.454,303.636C697.228,300.141 696.234,299.995 697.03,296.389C706.285,254.453 679.935,223.124 679.673,215.344Z" style="fill:rgb(251,249,248);"/>
                <path d="M430.9,704.329L430.945,705.286C406.28,704.468 406.04,705.679 382.266,698.903C367.442,694.678 367.134,691.354 361.826,694.789C336.146,711.413 309.294,717.187 304.446,718.23C271.39,725.338 230.376,712.986 225.571,709.928C225.881,709.452 226.191,708.976 226.501,708.5C288.696,730.337 334.138,709.952 362.334,692.157C367.659,688.796 374.804,696.535 396.504,700.477C425.029,705.659 426.029,700.897 430.9,704.329Z" style="fill:rgb(109,116,129);"/>
                <path d="M701.553,307.409C699.973,313.217 691.226,321.093 690.12,322.089C675.644,335.123 675.277,334.55 658.454,344.269C655.979,344.633 648.79,344.609 646.642,344.33L647.304,343.427C681.304,326.948 691.365,305.388 694.5,305.346C695.087,305.337 695.02,305.498 701.553,307.409Z" style="fill:rgb(250,248,248);"/>
                <path d="M677.631,284.577C675.972,291.942 677.435,292.915 671.646,297.687C670.897,298.304 665.434,302.807 662.006,305.049C661.93,304.899 655.998,296.63 662.604,289.599C667.72,284.154 674.171,285.012 677.631,284.577Z" style="fill:rgb(250,79,5);"/>
                <path d="M708.267,305.967C710.096,305.573 710.124,304.875 711.377,305.764C714.853,308.228 715.133,307.478 715.424,307.688C717.247,309.001 717.41,308.522 719.516,309.456C734.927,316.293 746.479,324.573 753.369,328.698C756.747,330.72 756.154,331.28 756.504,331.823C752.538,331.31 746.043,329.316 745.587,329.199C742.706,325.701 741.986,326.687 734.511,321.484C733.877,319.221 732.102,319.122 731.495,318.508C730.268,316.989 730.283,316.974 728.428,316.612C725.554,314.726 711.2,308.078 708.267,305.967Z" style="fill:rgb(251,246,244);"/>
                <path d="M626.645,241.597C621.529,246.433 619.265,238.133 623.424,237.227C627.405,236.359 626.707,241.167 626.645,241.597Z" style="fill:rgb(239,240,241);"/>
                <path d="M639.215,343.845C643.212,342.831 643.207,342.891 647.304,343.427L646.642,344.33C643.164,345.865 643.064,345.077 639.285,344.559L639.215,343.845Z" style="fill:rgb(49,61,81);"/>
                <path d="M728.428,316.612C730.283,316.974 730.268,316.989 731.495,318.508C730.381,317.69 728.68,316.751 728.428,316.612Z" style="fill:rgb(173,177,188);"/>
            </g>
        </g>
    </g>
</svg>
